<svg width="22" height="22" viewBox="0 0 22 22" fill="none" xmlns="http://www.w3.org/2000/svg">
<g id="Discord">
<path id="Vector" d="M18.5548 4.75341C17.1653 4.11585 15.6753 3.64613 14.1174 3.37711C14.089 3.37191 14.0607 3.38489 14.046 3.41084C13.8544 3.75167 13.6422 4.1963 13.4935 4.54578C11.8179 4.29492 10.1509 4.29492 8.50962 4.54578C8.36095 4.18853 8.14098 3.75167 7.9485 3.41084C7.93388 3.38575 7.90554 3.37278 7.87717 3.37711C6.32013 3.64527 4.83013 4.11499 3.43979 4.75341C3.42775 4.7586 3.41743 4.76725 3.41059 4.77849C0.584358 9.00082 -0.189864 13.1194 0.189943 17.1868C0.191662 17.2067 0.202833 17.2258 0.2183 17.2379C2.08297 18.6072 3.88921 19.4386 5.66192 19.9896C5.69029 19.9983 5.72035 19.9879 5.7384 19.9645C6.15774 19.3919 6.53154 18.7881 6.85203 18.1531C6.87094 18.1159 6.85289 18.0718 6.81423 18.0571C6.22133 17.8322 5.65676 17.5579 5.11368 17.2465C5.07073 17.2214 5.06729 17.16 5.10681 17.1306C5.22109 17.045 5.3354 16.9559 5.44453 16.8659C5.46427 16.8495 5.49178 16.846 5.515 16.8564C9.08276 18.4853 12.9453 18.4853 16.471 16.8564C16.4942 16.8451 16.5217 16.8486 16.5423 16.865C16.6514 16.955 16.7657 17.045 16.8809 17.1306C16.9204 17.16 16.9178 17.2214 16.8748 17.2465C16.3318 17.564 15.7672 17.8322 15.1734 18.0562C15.1348 18.0709 15.1176 18.1159 15.1365 18.1531C15.4639 18.7872 15.8377 19.391 16.2493 19.9637C16.2665 19.9879 16.2974 19.9983 16.3258 19.9896C18.1071 19.4386 19.9133 18.6072 21.778 17.2379C21.7943 17.2258 21.8046 17.2076 21.8063 17.1877C22.2609 12.4852 21.045 8.40048 18.5831 4.77935C18.5771 4.76725 18.5668 4.7586 18.5548 4.75341ZM7.38482 14.7102C6.31068 14.7102 5.42561 13.724 5.42561 12.5129C5.42561 11.3019 6.29351 10.3157 7.38482 10.3157C8.48469 10.3157 9.36119 11.3105 9.34399 12.5129C9.34399 13.724 8.47609 14.7102 7.38482 14.7102ZM14.6286 14.7102C13.5545 14.7102 12.6695 13.724 12.6695 12.5129C12.6695 11.3019 13.5373 10.3157 14.6286 10.3157C15.7285 10.3157 16.605 11.3105 16.5878 12.5129C16.5878 13.724 15.7285 14.7102 14.6286 14.7102Z" fill="white"/>
</g>
</svg>
