<svg width="25" height="25" viewBox="0 0 25 25" fill="none" xmlns="http://www.w3.org/2000/svg">
<g id="Group 103">
<path id="Vector" d="M11.9976 3.04816C15.203 3.04816 15.5793 3.06224 16.8462 3.11856C18.0179 3.17019 18.6513 3.3626 19.0752 3.52686C19.6372 3.74275 20.0373 3.99618 20.4565 4.40917C20.8756 4.82217 21.1375 5.21639 21.3519 5.77018C21.5138 6.18787 21.7138 6.81206 21.7662 7.96657C21.8234 9.21494 21.8377 9.5857 21.8377 12.7442C21.8377 15.9027 21.8234 16.2734 21.7662 17.5218C21.7138 18.6763 21.5186 19.3005 21.3519 19.7182C21.1328 20.272 20.8756 20.6662 20.4565 21.0792C20.0373 21.4922 19.6372 21.7503 19.0752 21.9615C18.6513 22.1211 18.0179 22.3182 16.8462 22.3698C15.5793 22.4261 15.203 22.4402 11.9976 22.4402C8.79223 22.4402 8.41596 22.4261 7.14904 22.3698C5.97738 22.3182 5.34392 22.1258 4.92003 21.9615C4.35801 21.7456 3.95793 21.4922 3.5388 21.0792C3.11967 20.6662 2.85771 20.272 2.64338 19.7182C2.48145 19.3005 2.28141 18.6763 2.22902 17.5218C2.17186 16.2734 2.15757 15.9027 2.15757 12.7442C2.15757 9.5857 2.17186 9.21494 2.22902 7.96657C2.28141 6.81206 2.47668 6.18787 2.64338 5.77018C2.86247 5.21639 3.11967 4.82217 3.5388 4.40917C3.95793 3.99618 4.35801 3.73805 4.92003 3.52686C5.34392 3.3673 5.97738 3.17019 7.14904 3.11856C8.41596 3.05755 8.79699 3.04816 11.9976 3.04816ZM11.9976 0.91748C8.73983 0.91748 8.33023 0.93156 7.04902 0.987878C5.77258 1.0442 4.90098 1.246 4.13892 1.53697C3.34829 1.83734 2.68149 2.24564 2.01469 2.90268C1.34789 3.55972 0.938282 4.22145 0.628697 4.99582C0.3334 5.74672 0.128597 6.60556 0.0714428 7.86801C0.0142886 9.12578 0 9.52938 0 12.7395C0 15.9496 0.0142886 16.3532 0.0714428 17.6157C0.128597 18.8734 0.3334 19.7323 0.628697 20.4879C0.933519 21.2669 1.34789 21.924 2.01469 22.581C2.68149 23.238 3.35305 23.6416 4.13892 23.9467C4.90098 24.2377 5.77258 24.4395 7.05379 24.4958C8.33499 24.5521 8.73983 24.5662 12.0024 24.5662C15.2649 24.5662 15.6698 24.5521 16.951 24.4958C18.2274 24.4395 19.099 24.2377 19.8659 23.9467C20.6565 23.6463 21.3233 23.238 21.9901 22.581C22.6569 21.924 23.0665 21.2622 23.3761 20.4879C23.6714 19.737 23.8762 18.8781 23.9333 17.6157C23.9905 16.3532 24.0048 15.9543 24.0048 12.7395C24.0048 9.52469 23.9905 9.12577 23.9333 7.86332C23.8762 6.60556 23.6714 5.74672 23.3761 4.99112C23.0713 4.21206 22.6569 3.55502 21.9901 2.89798C21.3233 2.24094 20.6517 1.83734 19.8659 1.53228C19.1038 1.24131 18.2322 1.0395 16.951 0.983184C15.665 0.93156 15.2554 0.91748 11.9976 0.91748Z" fill="white"/>
<path id="Vector_2" d="M11.9974 6.67139C8.59668 6.67139 5.83423 9.38871 5.83423 12.7443C5.83423 16.0999 8.59192 18.8172 11.9974 18.8172C15.4028 18.8172 18.1605 16.0999 18.1605 12.7443C18.1605 9.38871 15.4028 6.67139 11.9974 6.67139ZM11.9974 16.6818C9.78739 16.6818 7.99656 14.9172 7.99656 12.7396C7.99656 10.562 9.78739 8.79738 11.9974 8.79738C14.2073 8.79738 15.9981 10.562 15.9981 12.7396C15.9981 14.9172 14.2073 16.6818 11.9974 16.6818Z" fill="white"/>
<path id="Vector_3" d="M18.4042 7.8461C19.1986 7.8461 19.8426 7.21117 19.8426 6.42794C19.8426 5.6447 19.1986 5.00977 18.4042 5.00977C17.6098 5.00977 16.9658 5.6447 16.9658 6.42794C16.9658 7.21117 17.6098 7.8461 18.4042 7.8461Z" fill="white"/>
</g>
</svg>
