<svg width="22" height="22" viewBox="0 0 22 22" fill="none" xmlns="http://www.w3.org/2000/svg">
<g id="Medium">
<g id="Group">
<path id="Vector" d="M12.4093 11.2089C12.4093 14.6654 9.63136 17.4674 6.20476 17.4674C2.77817 17.4674 0 14.6648 0 11.2089C0 7.75306 2.77796 4.9502 6.20476 4.9502C9.63157 4.9502 12.4093 7.75243 12.4093 11.2089Z" fill="white"/>
<path id="Vector_2" d="M19.2158 11.209C19.2158 14.4625 17.8268 17.1011 16.1134 17.1011C14.4 17.1011 13.011 14.4625 13.011 11.209C13.011 7.95546 14.3998 5.31689 16.1132 5.31689C17.8266 5.31689 19.2155 7.95461 19.2155 11.209" fill="white"/>
<path id="Vector_3" d="M21.9999 11.2091C21.9999 14.1234 21.5115 16.4875 20.9088 16.4875C20.3061 16.4875 19.8179 14.1241 19.8179 11.2091C19.8179 8.29405 20.3063 5.93066 20.9088 5.93066C21.5112 5.93066 21.9999 8.29384 21.9999 11.2091Z" fill="white"/>
</g>
</g>
</svg>
