<svg width="24" height="17" viewBox="0 0 24 17" fill="none" xmlns="http://www.w3.org/2000/svg">
<path id="Subtract" fill-rule="evenodd" clip-rule="evenodd" d="M21.3903 0.514C22.4183 0.79077 23.2289 1.60131 23.5056 2.62931C24.0196 4.50739 23.9999 8.4217 23.9999 8.4217C23.9999 8.4217 23.9999 12.3162 23.5056 14.1943C23.2289 15.2223 22.4183 16.0329 21.3903 16.3096C19.5122 16.8039 11.9999 16.8039 11.9999 16.8039C11.9999 16.8039 4.50739 16.8039 2.60954 16.2899C1.58154 16.0131 0.771 15.2025 0.494231 14.1745C0 12.3162 0 8.40193 0 8.40193C0 8.40193 0 4.50739 0.494231 2.62931C0.771 1.60131 1.60131 0.771 2.60954 0.494231C4.48762 0 11.9999 0 11.9999 0C11.9999 0 19.5122 0 21.3903 0.514ZM15.855 8.40199L9.6079 12V4.80399L15.855 8.40199Z" fill="white"/>
</svg>
