<svg width="22" height="22" viewBox="0 0 22 22" fill="none" xmlns="http://www.w3.org/2000/svg">
<g id="Telegram">
<path id="Vector" fill-rule="evenodd" clip-rule="evenodd" d="M1.8672 10.3521C7.55189 7.87536 11.3426 6.24255 13.2393 5.45366C18.6547 3.20121 19.7799 2.80993 20.5134 2.79701C20.6747 2.79417 21.0354 2.83415 21.269 3.02373C21.4663 3.1838 21.5206 3.40005 21.5465 3.55182C21.5725 3.70359 21.6049 4.04932 21.5791 4.31947C21.2857 7.4029 20.0159 14.8856 19.3699 18.3391C19.0965 19.8004 18.5583 20.2904 18.0372 20.3383C16.9048 20.4425 16.0449 19.5899 14.9481 18.871C13.2318 17.7459 12.2623 17.0456 10.5963 15.9478C8.67104 14.679 9.91912 13.9817 11.0163 12.8421C11.3035 12.5439 16.2929 8.00561 16.3895 7.59392C16.4016 7.54243 16.4128 7.35051 16.2987 7.24916C16.1847 7.14782 16.0164 7.18247 15.895 7.21004C15.7229 7.2491 12.9811 9.06131 7.66971 12.6466C6.89147 13.181 6.18657 13.4414 5.555 13.4278C4.85874 13.4127 3.51942 13.0341 2.52378 12.7104C1.30258 12.3135 0.331991 12.1036 0.416507 11.4294C0.460529 11.0783 0.944092 10.7192 1.8672 10.3521Z" fill="white"/>
</g>
</svg>
