<svg width="22" height="22" viewBox="0 0 22 22" fill="none" xmlns="http://www.w3.org/2000/svg">
<g id="Twitter">
<path id="Vector" d="M19.3021 6.58206C19.3106 6.77567 19.3106 6.96047 19.3106 7.15407C19.3191 13.0237 15.0066 19.7997 7.12032 19.7997C4.79432 19.7997 2.51077 19.1045 0.549805 17.8021C0.889366 17.8461 1.22893 17.8637 1.56849 17.8637C3.4955 17.8637 5.37158 17.1949 6.89111 15.9541C5.05748 15.9189 3.44457 14.6781 2.88429 12.8653C3.52946 12.9973 4.1916 12.9709 4.81979 12.7861C2.82487 12.3813 1.39022 10.5597 1.38173 8.43887C1.38173 8.42127 1.38173 8.40367 1.38173 8.38607C1.97596 8.72927 2.6466 8.92287 3.32572 8.94047C1.44964 7.63807 0.863899 5.04206 2.00143 3.00925C4.18311 5.79006 7.39197 7.47087 10.8385 7.65567C10.4905 6.11566 10.9658 4.49646 12.0779 3.40525C13.8012 1.72445 16.5177 1.81245 18.1476 3.59886C19.1068 3.40525 20.0321 3.03565 20.8726 2.51645C20.55 3.54605 19.8793 4.41726 18.988 4.97166C19.8369 4.86606 20.6688 4.62846 21.4498 4.27646C20.8726 5.17406 20.1425 5.94846 19.3021 6.58206Z" fill="white"/>
</g>
</svg>
